
# Wavefront OBJ file made by Mineways version 9.04, http://mineways.com
# World: N700S
# Terrain file name: D:\MCTools\mineways\terrainExt.png
# Color scheme: Standard
# Tue Jun  7 17:52:01 2022

# Selection location min to max: 132, 3, 115 to 137, 255, 119
#   Non-empty selection location min to max: 132, 3, 115 to 137, 3, 119

# Set render type: Wavefront OBJ absolute indices
# Units for the model vertex data itself: meters

# 84 vertices, 82 faces (164 triangles), 30 blocks, 0 billboards/bits
# block dimensions: X=6 by Y=1 (height) by Z=5 blocks
# Elevation shading: no
# Lighting: no
# Transparent water: no
# Map grid: no
# File type: Export all textures to three large images
# Texture output RGB: YES
# Texture output A: YES
# Texture output RGBA: YES
# Make groups objects: YES
# Export separate objects: YES
# Individual blocks: no
#   Material per family: YES
#   Split by block type: YES
# G3D full material: YES
# Make Z the up direction instead of Y: no
# Create composite overlay faces: no
# Center model: YES
# Export lesser blocks: YES
# Fatten lesser blocks: no
# Create block faces at the borders: YES
# Make tree leaves solid: no
# Use biomes: no
# Rotate model 0.000000 degrees
# Scale model by making each block 1000 mm high
# Data operation options:
#   Fill air bubbles: no; Seal off entrances: no; Fill in isolated tunnels in base of model: no
#   Connect parts sharing an edge: no; Connect corner tips: no; Weld all shared edges: no
#   Delete floating objects: trees and parts smaller than 16 blocks: no
#   Hollow out bottom of model, making the walls 1000 mm thick: no; Superhollow: no
# Melt snow blocks: no
#   Debug: show separate parts as colors: no
#   Debug: show weld blocks in bright colors: no

# Full world path: D:\1.14.4Minecraft\.minecraft\saves\N700S
# Full terrainExt.png path: D:\MCTools\mineways\terrainExt.png
# Full current path: D:\MCTools\mineways

mtllib testObj.mtl
vn -1 0 0
vn 0 -1 0
vn 0 0 -1
vn 1 0 0
vn 0 1 0
vn 0 0 1
vn -0.707107 0 -0.707107
vn -0.707107 0 0.707107
vn 0.707107 0 -0.707107
vn 0.707107 0 0.707107
vn -0.707107 -0.707107 0
vn 0 -0.707107 -0.707107
vn 0.707107 -0.707107 0
vn 0 -0.707107 0.707107
vn -0.707107 0.707107 0
vn 0 0.707107 -0.707107
vn 0.707107 0.707107 0
vn 0 0.707107 0.707107
vn -0.92388 0 -0.382683
vn -0.92388 0 0.382683
vn 0.92388 0 -0.382683
vn 0.92388 0 0.382683
vn -0.382683 0 -0.92388
vn -0.382683 0 0.92388
vn 0.382683 0 -0.92388
vn 0.382683 0 0.92388
vn -0.397273 0.9177 0
vn 0.397273 -0.9177 0
vn 0.397273 0.9177 0
vn -0.397273 -0.9177 0
vn 0 0.9177 -0.397273
vn 0 -0.9177 0.397273
vn 0 0.9177 0.397273
vn 0 -0.9177 -0.397273
vn -0.440932 0.897541 0
vn 0.440932 -0.897541 0
vn 0.440932 0.897541 0
vn -0.440932 -0.897541 0
vn 0 0.897541 -0.440932
vn 0 -0.897541 0.440932
vn 0 0.897541 0.440932
vn 0 -0.897541 -0.440932
# grass_block_side
vt 0.053710938 0.983398438
vt 0.069335938 0.983398438
vt 0.069335938 0.999023438
vt 0.053710938 0.999023438
# dirt
vt 0.036132812 0.983398438
vt 0.051757812 0.983398438
vt 0.051757812 0.999023438
vt 0.036132812 0.999023438
# grass_block_top
vt 0.000976562 0.983398438
vt 0.016601562 0.983398438
vt 0.016601562 0.999023438
vt 0.000976562 0.999023438
v -3 0 -2
v -3 0 -1
v -3 1 -1
v -3 1 -2
v -2 0 -1
v -2 0 -2
v -2 1 -2
v -2 1 -1
v -3 0 0
v -3 1 0
v -2 0 0
v -2 1 0
v -3 0 1
v -3 1 1
v -2 0 1
v -2 1 1
v -3 0 2
v -3 1 2
v -2 0 2
v -2 1 2
v -3 0 3
v -3 1 3
v -2 0 3
v -2 1 3
v -1 0 -1
v -1 0 -2
v -1 1 -2
v -1 1 -1
v -1 0 0
v -1 1 0
v -1 0 1
v -1 1 1
v -1 0 2
v -1 1 2
v -1 0 3
v -1 1 3
v 0 0 -1
v 0 0 -2
v 0 1 -2
v 0 1 -1
v 0 0 0
v 0 1 0
v 0 0 1
v 0 1 1
v 0 0 2
v 0 1 2
v 0 0 3
v 0 1 3
v 1 0 -1
v 1 0 -2
v 1 1 -2
v 1 1 -1
v 1 0 0
v 1 1 0
v 1 0 1
v 1 1 1
v 1 0 2
v 1 1 2
v 1 0 3
v 1 1 3
v 2 0 -1
v 2 0 -2
v 2 1 -2
v 2 1 -1
v 2 0 0
v 2 1 0
v 2 0 1
v 2 1 1
v 2 0 2
v 2 1 2
v 2 0 3
v 2 1 3
v 3 0 -1
v 3 0 -2
v 3 1 -2
v 3 1 -1
v 3 0 0
v 3 1 0
v 3 0 1
v 3 1 1
v 3 0 2
v 3 1 2
v 3 0 3
v 3 1 3

o Grass_Block
g Grass_Block
usemtl Grass_Block
f 21/2/1 22/3/1 4/4/1 1/1/1
f 21/6/2 1/5/2 74/8/2 83/7/2
f 1/2/3 4/3/3 75/4/3 74/1/3
f 22/10/5 84/11/5 75/12/5 4/9/5
f 21/1/6 83/2/6 84/3/6 22/4/6
f 83/1/4 74/2/4 75/3/4 84/4/4